<svg width="147" height="42" viewBox="0 0 147 42" fill="none" xmlns="http://www.w3.org/2000/svg">
<g clip-path="url(#clip0_119_828)">
<path d="M65.3115 15.1317C66.2651 15.9525 67.145 16.7447 67.9985 17.5603C68.8099 18.3342 69.595 19.1316 70.3405 19.968C71.4206 21.1771 71.2863 22.7797 70.6751 23.7751C69.9374 24.9789 68.7362 25.0649 67.7377 24.0643C65.5222 21.852 63.2408 19.7074 60.588 17.9954C58.6807 16.7629 56.6575 15.7962 54.4025 15.3558C53.5858 15.1968 52.7586 15.1213 51.9235 15.1213C49.2997 15.1213 46.6784 15.1213 44.0546 15.1213C43.0641 15.1213 42.4766 15.6033 42.2869 16.5753C42.2369 16.8307 42.2184 17.0912 42.2184 17.3518C42.2184 18.9544 42.2263 20.5595 42.2184 22.1621C42.2132 22.9881 41.9286 23.7099 41.3227 24.291C40.651 24.9346 39.7026 24.9242 39.0308 24.2754C38.4855 23.7464 38.1931 23.0898 38.1852 22.3497C38.1641 20.2052 38.1193 18.058 38.2036 15.916C38.2747 14.0868 38.8807 12.406 40.1794 11.038C41.0303 10.139 42.0735 9.65434 43.3407 9.65695C50.63 9.66216 57.9167 9.65955 65.2061 9.65955C66.3125 9.65955 66.9474 9.15142 67.1503 8.07263C67.2793 7.3821 67.1713 6.72544 66.7446 6.14174C66.4205 5.69876 66.0069 5.47466 65.4326 5.47466C57.1633 5.48248 48.8966 5.47988 40.6273 5.47988C39.318 5.47988 38.5935 4.94048 38.2853 3.67146C38.0139 2.55619 38.1378 1.49824 38.9333 0.594034C39.2837 0.195349 39.7316 0.00512695 40.2716 0.00512695C48.6569 0.00512695 57.0395 0.00512695 65.4247 0.0103385C67.1213 0.0103385 68.3832 0.862429 69.3869 2.12884C70.4643 3.48906 70.978 5.06556 71.1018 6.77495C71.2415 8.73189 70.9201 10.595 69.8821 12.2914C69.1023 13.5656 68.0565 14.5454 66.5681 14.9701C66.1834 15.0796 65.7883 15.1187 65.3115 15.1265V15.1317Z" fill="#000000"/>
<path d="M145.3 13.6021C145.3 16.4034 145.3 19.2046 145.3 22.0058C145.3 22.8579 145.081 23.6318 144.454 24.2546C143.727 24.9764 142.65 24.9347 141.978 24.1608C141.462 23.564 141.243 22.8683 141.246 22.0892C141.248 17.873 141.251 13.6543 141.243 9.4381C141.243 8.82574 141.243 8.21078 141.138 7.60103C141.124 7.52025 141.127 7.41602 141.037 7.38996C140.943 7.3639 140.893 7.45771 140.84 7.52025C140.421 8.01795 140.073 8.56256 139.72 9.10456C136.717 13.6986 133.709 18.2899 130.716 22.8918C130.118 23.809 129.362 24.4813 128.258 24.6924C126.691 24.992 125.302 24.3979 124.428 23.0611C122.702 20.4241 120.979 17.7844 119.254 15.1474C117.699 12.7709 116.145 10.397 114.586 8.02316C114.459 7.83294 114.309 7.65835 114.159 7.48377C114.006 7.30657 113.927 7.35869 113.887 7.57236C113.798 8.07788 113.785 8.58601 113.785 9.09414C113.777 13.3937 113.779 17.6958 113.782 21.9954C113.782 22.8136 113.584 23.5588 113.015 24.1816C112.299 24.966 111.211 24.9686 110.492 24.1868C109.981 23.6318 109.73 22.9621 109.728 22.2221C109.72 16.5258 109.715 10.8296 109.728 5.13335C109.73 3.83306 110.047 2.59792 110.763 1.48786C111.596 0.195392 113.05 -0.320553 114.364 0.205815C115.094 0.497662 115.6 1.06312 116.092 1.63118C116.775 2.41552 117.281 3.32233 117.844 4.18484C120.642 8.46354 123.432 12.7501 126.224 17.034C126.419 17.3336 126.651 17.602 126.914 17.8444C127.294 18.1935 127.707 18.2013 128.097 17.8548C128.356 17.6255 128.579 17.3623 128.769 17.0704C131.899 12.2471 135.028 7.42383 138.166 2.60574C138.643 1.87352 139.112 1.13087 139.849 0.607105C141.285 -0.40915 143.121 -0.117302 144.133 1.31067C145.013 2.55102 145.297 3.96596 145.303 5.44865C145.31 8.16648 145.303 10.8843 145.303 13.6021H145.3Z" fill="#000000"/>
<path d="M16.7412 9.66224C21.3961 9.66224 26.0511 9.67788 30.7061 9.64922C31.715 9.644 32.3578 10.0896 32.7266 10.9443C33.243 12.1429 33.1771 13.3182 32.3815 14.4022C32.018 14.8973 31.5175 15.1266 30.8878 15.1266C22.0837 15.1214 13.277 15.1266 4.47284 15.1161C4.18042 15.1161 4.07768 15.1657 4.08822 15.481C4.11456 16.2705 4.09612 17.0627 4.09612 17.8548C4.09612 18.7825 4.6309 19.3089 5.56084 19.3089C14.2174 19.3089 22.8767 19.3089 31.5333 19.3089C32.7767 19.3089 33.4748 19.7987 33.8067 20.9922C34.1097 22.084 34.0201 23.1367 33.2904 24.0696C32.9269 24.5334 32.4527 24.7706 31.8468 24.7706C22.9689 24.7654 14.0884 24.7706 5.21047 24.7654C3.79053 24.7654 2.73678 24.0279 1.88323 22.9908C0.789964 21.6619 0.186689 20.1062 0.0839482 18.4125C-0.0530399 16.1585 -0.00825536 13.8966 0.0628731 11.6374C0.102389 10.4179 0.742545 9.8212 1.98334 9.70394C2.24415 9.67788 2.50758 9.66746 2.77102 9.66746C7.42599 9.66746 12.0809 9.66746 16.7359 9.66746L16.7412 9.66224Z" fill="#000000"/>
<path d="M98.2603 9.8368C97.6492 9.22705 96.9432 8.79189 96.0817 8.59645C94.3773 8.2134 92.5885 8.92999 91.6902 10.4049C91.0527 11.4498 90.5995 12.5859 90.0648 13.6803C88.521 16.8464 86.9773 20.0124 85.4625 23.1914C85.1042 23.9419 84.7091 24.6298 83.9872 25.0885C82.7728 25.8572 81.1869 25.7451 80.1147 24.8148C79.0214 23.8663 78.6868 22.3237 79.3112 21.0312C81.0578 17.4196 82.8097 13.8106 84.5589 10.199C85.8945 7.44209 87.2275 4.68257 88.5605 1.92565C89.1638 0.677477 90.1728 0.0130028 91.5664 0.0208201C92.9494 0.0286375 93.9241 0.71917 94.5195 1.95431C95.734 4.47931 96.9616 7.00171 98.1813 9.52411C98.2261 9.61792 98.292 9.7013 98.2893 9.81335C98.2814 9.82117 98.2709 9.82899 98.263 9.8342L98.2603 9.8368Z" fill="#000000"/>
<path d="M16.9998 0.0105827C21.9182 0.0105827 26.8366 0.0157942 31.7523 0.00537109C32.5031 0.00537109 33.0406 0.312853 33.441 0.909578C34.2577 2.11866 34.1128 3.9844 33.1301 4.96417C32.8035 5.2899 32.4162 5.46709 31.9499 5.47751C31.8551 5.47751 31.7602 5.47751 31.6654 5.47751C21.9551 5.47751 12.2473 5.47751 2.53699 5.47751C1.1355 5.47751 0.384697 4.88861 0.108086 3.51015C-0.0868584 2.51213 0.0290546 1.55842 0.685017 0.727173C1.06437 0.242497 1.55436 0.00797688 2.18398 0.00797688C7.12346 0.0131884 12.0629 0.0105827 16.9998 0.0105827Z" fill="#000000"/>
<path d="M89.7822 20.0412C90.2643 19.0353 90.7411 18.0295 91.2285 17.0263C92.0373 15.356 92.8539 13.6935 93.66 12.0232C94.179 10.947 95.08 10.3972 96.2338 10.2669C97.5431 10.1184 98.5521 10.6499 99.2291 11.7652C99.7929 12.6929 100.225 13.6909 100.71 14.6602C101.648 16.5338 102.575 18.41 103.494 20.2939C103.847 21.0183 104.132 21.7584 104.105 22.5922C104.058 24.0697 102.817 25.4221 101.331 25.5706C99.9325 25.7088 98.884 25.1381 98.1201 24.0072C97.6775 23.3557 97.3982 22.6209 97.0795 21.9095C96.6791 21.0131 96.1838 20.1845 95.3803 19.5826C93.7602 18.3683 91.5025 18.5012 90.0272 19.8926C89.9587 19.9578 89.8902 20.0203 89.8217 20.0829C89.8086 20.0698 89.7954 20.0568 89.7822 20.0438V20.0412Z" fill="#000000"/>
<path d="M53.7573 32.244C48.2093 32.244 42.6587 32.244 37.1106 32.2519C36.8156 32.2519 36.7128 32.1971 36.7234 31.8844C36.7497 31.1783 36.7366 30.4695 36.7287 29.7607C36.7287 29.5731 36.7787 29.4871 36.9763 29.5132C37.029 29.521 37.0817 29.5132 37.1344 29.5132C48.2225 29.5132 59.3106 29.5132 70.3988 29.5054C70.707 29.5054 70.8124 29.5627 70.7992 29.8884C70.7702 30.5737 70.7807 31.2617 70.7965 31.9496C70.8018 32.1763 70.7491 32.2519 70.5041 32.2493C69.6506 32.2336 68.7997 32.244 67.9461 32.244C63.2174 32.244 58.4913 32.244 53.7626 32.244H53.7573Z" fill="#000000"/>
<path d="M91.5503 32.244C86.0023 32.244 80.4516 32.244 74.9036 32.2519C74.6086 32.2519 74.5058 32.1945 74.5164 31.8818C74.5427 31.1757 74.5295 30.4669 74.5216 29.7581C74.5216 29.5679 74.5743 29.4845 74.7693 29.5132C74.8219 29.521 74.8746 29.5132 74.9273 29.5132C86.0155 29.5132 97.1036 29.5132 108.192 29.5054C108.503 29.5054 108.605 29.5653 108.59 29.891C108.561 30.5763 108.571 31.2643 108.587 31.9522C108.592 32.1815 108.537 32.2545 108.294 32.2493C107.357 32.2336 106.421 32.244 105.484 32.244C100.839 32.244 96.1974 32.244 91.5529 32.244H91.5503Z" fill="#000000"/>
<path d="M129.372 29.5132C134.92 29.5132 140.471 29.5132 146.019 29.5054C146.309 29.5054 146.39 29.5757 146.38 29.8624C146.359 30.5581 146.362 31.2565 146.38 31.9548C146.385 32.1893 146.319 32.2493 146.082 32.2493C143.819 32.2388 141.554 32.244 139.291 32.244C130.423 32.244 121.559 32.244 112.691 32.2519C112.388 32.2519 112.299 32.1841 112.309 31.8792C112.336 31.1939 112.33 30.506 112.309 29.8181C112.302 29.5653 112.381 29.508 112.628 29.508C115.966 29.5158 119.304 29.5132 122.641 29.5132C124.883 29.5132 127.128 29.5132 129.37 29.5132H129.372Z" fill="#000000"/>
<path d="M17.0497 32.244C11.4991 32.244 5.95106 32.2414 0.400401 32.2519C0.089543 32.2519 0.0131458 32.1685 0.0210489 31.8714C0.0447584 31.1757 0.0342209 30.4773 0.0263177 29.779C0.0263177 29.5835 0.0711023 29.4767 0.289756 29.5132C0.33981 29.521 0.395132 29.5132 0.44782 29.5132C11.5254 29.5132 22.603 29.5132 33.6806 29.5132C34.1311 29.5132 34.0758 29.4585 34.0784 29.9171C34.081 30.5633 34.0626 31.2095 34.0863 31.8532C34.0969 32.1554 34.0336 32.2519 33.6991 32.2519C28.1484 32.2388 22.6004 32.244 17.0497 32.244Z" fill="#000000"/>
<path d="M59.1845 36.137C58.929 36.9969 58.6708 37.8802 58.4021 38.761C58.1097 39.7147 57.7962 40.6632 57.5064 41.6195C57.4432 41.828 57.3457 41.8827 57.1323 41.8801C56.3262 41.8697 56.3289 41.8801 56.1102 41.1218C55.8705 40.2828 55.6202 39.4463 55.3857 38.6046C55.1539 37.776 54.9326 36.9474 54.6903 36.1187C54.7298 36.9682 54.7377 37.8151 54.7377 38.6646C54.7377 39.6417 54.7377 40.6215 54.7509 41.5987C54.7535 41.8124 54.7061 41.8983 54.4769 41.8775C54.195 41.854 53.8288 41.9635 53.6523 41.8254C53.4626 41.6769 53.5917 41.3016 53.5917 41.0254C53.5865 39.1518 53.5944 37.2783 53.5812 35.4047C53.5812 35.1311 53.6681 35.0738 53.921 35.0868C54.3188 35.1077 54.7219 35.1077 55.1197 35.0868C55.3752 35.0712 55.4832 35.152 55.5596 35.3995C56.0206 36.9343 56.4948 38.4613 56.8847 40.0144C56.8979 40.0639 56.8979 40.1186 56.969 40.1577C57.1956 39.4202 57.4116 38.6828 57.646 37.9506C57.9306 37.0698 58.2335 36.1943 58.5154 35.3135C58.5681 35.1468 58.6445 35.0816 58.8236 35.0868C59.2662 35.0999 59.7088 35.0999 60.1514 35.0868C60.3489 35.0816 60.4016 35.1546 60.399 35.3396C60.3937 37.4425 60.3937 39.5453 60.399 41.6482C60.399 41.8228 60.3516 41.8879 60.1672 41.8775C59.9248 41.8645 59.6824 41.8593 59.4401 41.8775C59.2161 41.8957 59.1582 41.8176 59.1608 41.5987C59.1766 40.2254 59.1766 38.8522 59.1819 37.4763C59.1819 37.0229 59.1819 36.5695 59.1819 36.1344L59.1845 36.137Z" fill="#000000"/>
<path d="M107.473 34.9905C109.34 34.9931 110.544 36.038 110.787 37.6536C110.934 38.636 110.853 39.5845 110.355 40.4678C109.744 41.5518 108.758 42.0079 107.546 41.9818C106.316 41.9557 105.373 41.4085 104.87 40.275C104.335 39.0737 104.33 37.8412 104.909 36.653C105.468 35.5064 106.458 35.0061 107.473 34.9905ZM109.538 38.4405C109.549 37.9949 109.477 37.5259 109.272 37.0829C108.993 36.4758 108.524 36.1162 107.839 36.0641C107.146 36.0119 106.574 36.2334 106.192 36.8328C105.623 37.7266 105.673 39.3656 106.292 40.2229C107.02 41.2339 108.6 41.1401 109.193 40.0483C109.459 39.5584 109.541 39.0294 109.535 38.4405H109.538Z" fill="#000000"/>
<path d="M21.7209 38.5422C22.3663 38.8471 22.5059 39.41 22.5507 40.0067C22.5929 40.5852 22.5059 41.1715 22.6192 41.75C22.6456 41.8881 22.5507 41.8724 22.4664 41.875C22.203 41.875 21.9395 41.8594 21.6761 41.8803C21.4443 41.9011 21.389 41.7838 21.3626 41.5988C21.2994 41.1532 21.3126 40.7077 21.3073 40.2595C21.2994 39.3917 21.0175 39.1051 20.1324 39.0764C19.8057 39.066 19.479 39.0843 19.1524 39.0712C18.9574 39.0634 18.8995 39.1312 18.9021 39.3214C18.91 40.0823 18.8995 40.8405 18.91 41.6014C18.9126 41.8125 18.8652 41.9011 18.636 41.8829C18.3331 41.8594 17.9405 41.9767 17.7509 41.8281C17.548 41.6692 17.6903 41.2653 17.6876 40.9682C17.6824 39.1259 17.6876 37.2837 17.6797 35.4414C17.6797 35.1808 17.7245 35.0792 18.0196 35.0896C19.018 35.1287 20.0217 35.027 21.0175 35.1391C22.2952 35.2824 22.9986 36.442 22.5692 37.638C22.4216 38.0498 22.1345 38.3338 21.7183 38.5475L21.7209 38.5422ZM18.91 37.0153C18.91 37.3306 18.91 37.5911 18.91 37.8491C18.91 37.9559 18.9311 38.0341 19.0602 38.0315C19.6055 38.0185 20.1561 38.0862 20.6961 37.9794C21.165 37.8856 21.4074 37.5625 21.4153 37.0856C21.4232 36.627 21.1598 36.2987 20.7066 36.1788C20.4274 36.1058 20.1429 36.1215 19.861 36.1241C19.5581 36.1241 19.155 36.0225 18.9759 36.1736C18.7677 36.3508 18.9442 36.7599 18.91 37.0127V37.0153Z" fill="#000000"/>
<path d="M87.5143 39.9283C87.5881 39.9283 87.6618 39.9361 87.7356 39.9283C88.0069 39.8918 88.1597 39.9648 88.2572 40.2593C88.3863 40.6501 88.7314 40.8534 89.1344 40.9394C89.4374 41.0045 89.7377 41.0071 90.0433 40.9472C90.4832 40.8612 90.752 40.6163 90.8125 40.2306C90.881 39.8033 90.7045 39.4697 90.2988 39.2534C89.9432 39.0632 89.5533 38.9772 89.1661 38.8782C88.7893 38.7818 88.4232 38.6567 88.0754 38.4821C87.4089 38.146 87.0664 37.6196 87.0954 36.8743C87.1244 36.1239 87.459 35.548 88.165 35.2457C89.037 34.8731 89.9327 34.8809 90.7994 35.2562C91.4422 35.535 91.8004 36.0561 91.9243 36.7389C91.9506 36.8796 91.9216 36.9317 91.7767 36.9265C91.6187 36.9213 91.4606 36.9187 91.3025 36.9265C90.939 36.9473 90.665 36.9499 90.4964 36.4887C90.2541 35.8138 88.9737 35.8633 88.6102 36.2203C88.2651 36.5591 88.3389 37.1792 88.7656 37.4294C89.0501 37.5935 89.3689 37.6717 89.6824 37.7525C90.2014 37.8854 90.7072 38.0443 91.1866 38.2945C92.4907 38.9772 92.3774 40.9863 91.1577 41.5986C90.1118 42.125 89.0264 42.125 87.9674 41.6221C87.372 41.3381 87.0533 40.8169 86.8952 40.1915C86.8373 39.9648 86.9005 39.8918 87.1297 39.9205C87.2535 39.9361 87.3826 39.9231 87.509 39.9231L87.5143 39.9283Z" fill="#000000"/>
<path d="M34.8842 41.8748C35.2056 40.9289 35.5138 40.0143 35.822 39.1023C36.2435 37.8541 36.6729 36.6059 37.0839 35.3525C37.1498 35.1493 37.2367 35.0711 37.458 35.0841C37.8136 35.105 38.1719 35.092 38.5302 35.0868C38.6698 35.0868 38.7594 35.1076 38.812 35.2639C39.5681 37.432 40.3321 39.5974 41.0934 41.7628C41.104 41.7914 41.1013 41.8227 41.1066 41.8748C40.722 41.8748 40.3453 41.867 39.9685 41.8774C39.8158 41.8826 39.7762 41.8045 39.7341 41.6846C39.5918 41.2625 39.4311 40.8429 39.2941 40.4182C39.2283 40.2149 39.1229 40.1498 38.9095 40.155C38.2799 40.1706 37.6476 40.1732 37.0154 40.155C36.7651 40.1472 36.665 40.241 36.5992 40.4625C36.4832 40.8612 36.3305 41.2494 36.2119 41.6455C36.1592 41.8253 36.067 41.8852 35.88 41.8774C35.5586 41.8618 35.2345 41.8722 34.8789 41.8722L34.8842 41.8748ZM37.9243 36.1369C37.6266 37.0906 37.3526 37.9687 37.076 38.8495C37.0365 38.9798 36.9864 39.0944 37.2051 39.0918C37.7082 39.0866 38.2114 39.0892 38.7146 39.0918C38.8647 39.0918 38.8963 39.0345 38.8516 38.9016C38.5486 38.0026 38.2483 37.1036 37.9243 36.1395V36.1369Z" fill="#000000"/>
<path d="M0.308078 38.4795C0.308078 37.4502 0.315982 36.4183 0.30281 35.389C0.300175 35.1545 0.366035 35.092 0.60313 35.0946C1.92823 35.105 3.25596 35.105 4.58105 35.0946C4.81025 35.0946 4.88664 35.1441 4.88401 35.3838C4.87611 36.1525 4.88664 36.1525 4.12267 36.1525C3.35343 36.1525 2.58682 36.1577 1.81758 36.1499C1.60947 36.1473 1.51199 36.189 1.52517 36.4209C1.54361 36.804 1.54097 37.1922 1.52517 37.5753C1.51726 37.7733 1.58839 37.8176 1.77807 37.8176C2.67376 37.8098 3.56682 37.8176 4.46251 37.8098C4.67062 37.8098 4.776 37.8437 4.74702 38.0756C4.71541 38.3309 4.85503 38.6645 4.69433 38.826C4.53364 38.9876 4.1938 38.8703 3.93563 38.8729C3.21908 38.8808 2.50252 38.8834 1.7886 38.8729C1.57522 38.8703 1.52253 38.9381 1.5278 39.1387C1.54097 39.6182 1.54097 40.0977 1.5278 40.5745C1.52253 40.7674 1.58049 40.8221 1.77543 40.8195C2.78704 40.8116 3.79601 40.8221 4.80761 40.809C5.04998 40.8064 5.09213 40.8846 5.04471 41.0957C4.98675 41.3458 5.03417 41.7002 4.88137 41.8279C4.72595 41.9582 4.38084 41.8774 4.12004 41.8774C2.93983 41.8774 1.76226 41.8722 0.582055 41.8826C0.358132 41.8826 0.30281 41.8201 0.305444 41.6038C0.315982 40.5641 0.310713 39.5218 0.310713 38.4821L0.308078 38.4795Z" fill="#000000"/>
<path d="M123.614 38.4743C123.614 37.4528 123.619 36.434 123.608 35.4125C123.608 35.1832 123.645 35.0868 123.911 35.0894C125.218 35.105 126.522 35.1024 127.829 35.0894C128.068 35.0894 128.126 35.1572 128.126 35.3865C128.118 36.1474 128.126 36.15 127.357 36.15C126.609 36.15 125.861 36.1578 125.115 36.1447C124.897 36.1421 124.82 36.2021 124.831 36.4236C124.847 36.8509 124.852 37.2783 124.831 37.703C124.818 37.9506 124.915 37.9922 125.139 37.9896C125.982 37.9766 126.825 37.9896 127.665 37.9792C127.873 37.9766 127.929 38.0365 127.929 38.2398C127.929 39.0554 127.939 39.0554 127.131 39.0554C126.456 39.0554 125.782 39.0658 125.11 39.0502C124.881 39.045 124.831 39.1179 124.833 39.3316C124.847 40.0925 124.833 40.8508 124.844 41.6117C124.847 41.8149 124.789 41.8853 124.58 41.8723C124.341 41.854 124.096 41.854 123.853 41.8723C123.648 41.8879 123.611 41.8045 123.614 41.6221C123.622 40.572 123.616 39.5192 123.616 38.4691L123.614 38.4743Z" fill="#000000"/>
<path d="M143.648 39.0424C143.648 39.9049 143.642 40.77 143.653 41.6326C143.653 41.8254 143.6 41.8879 143.405 41.8775C143.081 41.8567 142.657 41.9817 142.459 41.8202C142.254 41.6534 142.399 41.2156 142.396 40.8977C142.391 39.4098 142.388 37.9219 142.396 36.4366C142.396 36.223 142.346 36.1474 142.12 36.1552C141.627 36.1708 141.132 36.15 140.636 36.1656C140.405 36.1708 140.304 36.1291 140.31 35.8634C140.323 35.0894 140.31 35.0894 141.103 35.0894C142.533 35.0894 143.964 35.0947 145.394 35.0842C145.629 35.0842 145.697 35.1416 145.694 35.3787C145.687 36.163 145.694 36.163 144.915 36.163C144.577 36.163 144.24 36.1734 143.906 36.1578C143.695 36.1474 143.64 36.2204 143.642 36.421C143.653 37.2939 143.648 38.1695 143.648 39.0424Z" fill="#000000"/>
<path d="M92.7727 22.5114C92.7648 23.4 92.0061 24.1348 91.1077 24.1296C90.1488 24.1218 89.4323 23.4026 89.4375 22.4593C89.4454 21.5264 90.191 20.8098 91.1446 20.8254C92.0587 20.8411 92.7806 21.5863 92.77 22.5114H92.7727Z" fill="#000000"/>
<path d="M98.2861 9.81348C98.3256 9.83432 98.3546 9.88123 98.3204 9.90207C98.2729 9.92813 98.2756 9.86559 98.2598 9.83432C98.2677 9.82651 98.2782 9.82129 98.2861 9.81348Z" fill="#000000"/>
<path d="M89.8216 20.0802C89.8032 20.0906 89.7821 20.101 89.7637 20.1115C89.7689 20.088 89.7768 20.0645 89.7821 20.0437C89.7953 20.0567 89.8085 20.0698 89.8216 20.0828V20.0802Z" fill="#000000"/>
</g>
<defs>
<clipPath id="clip0_119_828">
<rect width="146.382" height="42" fill="white"/>
</clipPath>
</defs>
</svg>
