<svg width="147" height="42" viewBox="0 0 147 42" fill="none" xmlns="http://www.w3.org/2000/svg">
<g clip-path="url(#clip0_119_828)">
<path fill-rule="evenodd" clip-rule="evenodd" d="M90.0277 19.8901C89.9619 19.9527 89.8908 20.0178 89.8223 20.0804L89.8249 20.0751C89.8157 20.0804 89.8058 20.0856 89.7959 20.0908C89.7904 20.0937 89.7848 20.0966 89.7794 20.0996C89.7752 20.1018 89.771 20.1041 89.7669 20.1064C89.7691 20.0978 89.7718 20.0886 89.7745 20.0793C89.7772 20.0699 89.78 20.0603 89.7825 20.0507C89.7835 20.0467 89.7845 20.0427 89.7854 20.0387L89.7871 20.0351L89.7884 20.0324C90.2668 19.0287 90.7453 18.0249 91.229 17.0238C91.5614 16.3384 91.8951 15.6534 92.2289 14.9684L92.2323 14.9614C92.7095 13.9819 93.1869 13.0022 93.6606 12.0207C94.1795 10.9445 95.0805 10.3947 96.2344 10.2644C97.5436 10.1158 98.5526 10.6448 99.2297 11.7627C99.6324 12.4272 99.9678 13.1249 100.303 13.8226C100.437 14.1017 100.572 14.3808 100.71 14.6577C101.645 16.5313 102.575 18.4101 103.495 20.2914C103.848 21.0158 104.132 21.7559 104.106 22.5897C104.058 24.0672 102.818 25.4196 101.332 25.5681C99.933 25.7062 98.8872 25.1356 98.1206 24.0047C97.7663 23.4831 97.5166 22.9082 97.2676 22.3346C97.2056 22.1917 97.1436 22.0489 97.08 21.907C96.6796 21.0132 96.1843 20.1846 95.3808 19.58C93.7633 18.3658 91.503 18.5013 90.0277 19.8901ZM98.2683 9.86243C98.2658 9.85303 98.2634 9.84396 98.2602 9.83703L98.2576 9.83964C97.6464 9.22988 96.9404 8.79211 96.0789 8.59928C94.3745 8.21623 92.5884 8.93282 91.6874 10.4077C91.2464 11.1306 90.8936 11.8971 90.541 12.6633C90.3839 13.0046 90.2268 13.3459 90.062 13.6832C88.5182 16.8492 86.9745 20.0152 85.4597 23.1943C85.1041 23.9447 84.7063 24.6327 83.9845 25.0913C82.7674 25.86 81.1841 25.7479 80.1119 24.8177C79.0186 23.8692 78.6841 22.3265 79.3084 21.0341C80.4002 18.7764 81.4941 16.5198 82.5881 14.2629L82.5887 14.2618L82.5922 14.2545L82.5972 14.2441L82.6006 14.2372C83.2525 12.8922 83.9045 11.5472 84.5561 10.2018C85.5646 8.12029 86.5715 6.03726 87.5781 3.95499L87.5797 3.95157L88.5578 1.92848C89.1637 0.677706 90.17 0.0158369 91.5636 0.0236542C92.9493 0.0314716 93.9214 0.722004 94.5167 1.95714C95.5101 4.02247 96.5105 6.08605 97.5108 8.14931L98.1785 9.52694C98.1894 9.54958 98.2014 9.57161 98.2134 9.59359C98.2511 9.66267 98.2885 9.73118 98.2865 9.81618C98.3287 9.83703 98.3577 9.88394 98.3208 9.90478C98.2848 9.92454 98.2762 9.89187 98.2683 9.86243ZM66.5685 14.9756C66.1839 15.0851 65.7888 15.1242 65.3119 15.132V15.1346C66.2682 15.9554 67.1455 16.7476 67.999 17.5632C68.8104 18.3371 69.5954 19.1345 70.341 19.9709C71.4211 21.18 71.2867 22.78 70.6755 23.778C69.9379 24.9818 68.7393 25.0652 67.7382 24.0672C65.5227 21.8549 63.2413 19.7103 60.5885 17.9983C58.6812 16.7684 56.6553 15.7991 54.4029 15.3587C53.5836 15.1971 52.7564 15.1242 51.924 15.1242H44.0551C43.0619 15.1242 42.4771 15.6062 42.2874 16.5782C42.2373 16.8336 42.2189 17.0941 42.2189 17.3547L42.2203 18.1546C42.2229 19.4912 42.2255 20.829 42.2189 22.165C42.2163 22.991 41.9317 23.7128 41.3232 24.2939C40.6514 24.9349 39.7004 24.9271 39.0313 24.2783C38.486 23.7493 38.1935 23.0926 38.1856 22.3526C38.1824 22.0201 38.1785 21.6875 38.1747 21.3549C38.1538 19.5424 38.1329 17.7288 38.2041 15.9189C38.2778 14.0897 38.8838 12.4089 40.1799 11.0409C41.0308 10.1419 42.0714 9.65984 43.3411 9.65984C48.8082 9.66375 54.2738 9.66326 59.7402 9.66277C61.5622 9.66261 63.3843 9.66244 65.2066 9.66244C66.313 9.66244 66.9479 9.15432 67.1507 8.07552C67.2798 7.38499 67.1718 6.72833 66.745 6.14464C66.421 5.70165 66.0074 5.47756 65.4331 5.47756C58.8178 5.48381 52.2041 5.48339 45.5894 5.48298L40.6277 5.48277C39.3211 5.48277 38.5966 4.94337 38.2857 3.67436C38.0118 2.55908 38.1382 1.50113 38.9338 0.596926C39.2842 0.195636 39.732 0.00801952 40.2721 0.00801952C44.4647 0.0106253 48.6567 0.0106253 52.8486 0.0106253C57.0406 0.0106253 61.2326 0.0106253 65.4252 0.0132311C67.1218 0.0158369 68.3836 0.865322 69.3873 2.13434C70.4648 3.49195 70.9785 5.07106 71.1023 6.78045C71.2446 8.73739 70.9205 10.6005 69.8826 12.2969C69.1028 13.5711 68.057 14.5483 66.5685 14.9756ZM145.301 10.8846C145.3 11.7905 145.3 12.6964 145.3 13.6024H145.297V22.006C145.295 22.8581 145.079 23.6346 144.452 24.2548C143.724 24.9766 142.647 24.9349 141.975 24.161C141.459 23.5669 141.243 22.8685 141.243 22.0894C141.248 17.8733 141.251 13.6545 141.24 9.43835L141.24 9.39196C141.238 8.79482 141.235 8.19309 141.135 7.60127C141.133 7.58787 141.131 7.57383 141.129 7.55961C141.121 7.48807 141.112 7.41194 141.035 7.3902C140.955 7.3684 140.907 7.43052 140.863 7.48803C140.854 7.49924 140.846 7.51028 140.837 7.52049C140.45 7.97784 140.124 8.47967 139.798 8.98077L139.718 9.10481C139.016 10.1777 138.315 11.2505 137.613 12.3233L137.604 12.3365L137.595 12.3499C135.298 15.8617 133.001 19.3738 130.713 22.892C130.118 23.8092 129.362 24.4815 128.255 24.6926C126.691 24.9949 125.302 24.3981 124.425 23.0614C123.562 21.7429 122.7 20.4239 121.838 19.1048L121.835 19.1002L121.832 19.0957C120.972 17.7794 120.112 16.4632 119.251 15.1476C117.697 12.7711 116.142 10.3973 114.583 8.02341C114.466 7.84432 114.324 7.67909 114.182 7.51467L114.156 7.48401C114.003 7.30682 113.924 7.35633 113.885 7.57261C113.795 8.07552 113.782 8.58626 113.782 9.09438C113.774 13.3939 113.777 17.6961 113.779 21.9956C113.779 22.8164 113.579 23.5617 113.013 24.1819C112.294 24.9662 111.208 24.9688 110.489 24.1871C109.978 23.632 109.725 22.9624 109.725 22.2223C109.715 16.5261 109.709 10.8298 109.725 5.13359C109.73 3.83591 110.044 2.59817 110.76 1.4881C111.593 0.195636 113.044 -0.320309 114.362 0.206059C115.089 0.497907 115.597 1.06336 116.09 1.63142C116.603 2.22383 117.019 2.88461 117.434 3.54529C117.569 3.75934 117.704 3.97339 117.842 4.18509C119.869 7.28226 121.889 10.3835 123.909 13.485C124.68 14.6681 125.45 15.8512 126.222 17.0342C126.417 17.3339 126.648 17.6023 126.912 17.8446C127.294 18.1938 127.707 18.2016 128.095 17.855C128.353 17.6231 128.577 17.3625 128.766 17.0707C129.92 15.295 131.074 13.5187 132.227 11.7422C134.205 8.69589 136.183 5.64938 138.163 2.60598L138.22 2.5182C138.678 1.81478 139.136 1.11019 139.847 0.60735C141.282 -0.4063 143.116 -0.117058 144.13 1.31091C145.01 2.55126 145.295 3.9662 145.3 5.44889C145.303 7.26078 145.302 9.07267 145.301 10.8846ZM2.77684 9.66244H16.7417L16.747 9.65723C17.9613 9.65723 19.1756 9.6583 20.3899 9.65936C23.8306 9.66237 27.2712 9.66539 30.7119 9.6442C31.7209 9.63899 32.3636 10.0846 32.7325 10.9393C33.2488 12.1405 33.1829 13.3158 32.3874 14.3972C32.0238 14.8922 31.5233 15.1216 30.8937 15.1216C27.1202 15.1193 23.3463 15.1185 19.5723 15.1177C14.5409 15.1167 9.50935 15.1156 4.47865 15.1111C4.18624 15.1111 4.0835 15.1606 4.09403 15.4759C4.11269 16.0351 4.10888 16.5957 4.10508 17.1565C4.10351 17.3876 4.10194 17.6187 4.10194 17.8498C4.10194 18.7775 4.63408 19.3038 5.56666 19.3038H31.5391C32.7825 19.3038 33.4806 19.7937 33.8126 20.9872C34.1155 22.079 34.0259 23.1317 33.2962 24.0646C32.9327 24.5284 32.4585 24.7656 31.8526 24.7656C27.4136 24.763 22.974 24.763 18.5344 24.763C14.0948 24.763 9.65522 24.763 5.21628 24.7603C3.79635 24.7577 2.74259 24.0229 1.88905 22.9858C0.79578 21.6569 0.192506 20.1038 0.0897645 18.4074C-0.0472236 16.1508 -0.00507344 13.889 0.0686894 11.6324C0.108205 10.4129 0.748361 9.81619 1.98916 9.69893C2.24996 9.67287 2.5134 9.66244 2.77684 9.66244ZM13.2955 0.0109511C14.5302 0.0107882 15.7649 0.0106253 16.9999 0.0106253H17.0025C18.3431 0.0106253 19.6838 0.0112066 21.0246 0.011788C24.6008 0.0133386 28.1779 0.0148897 31.7551 0.00541374C32.5059 0.00280796 33.0407 0.312896 33.4437 0.907014C34.2604 2.1187 34.1155 3.98184 33.1329 4.96161C32.8062 5.28734 32.419 5.46713 31.9527 5.47495H31.6682H2.53974C1.13825 5.47495 0.384816 4.88604 0.11084 3.50759C-0.0867395 2.51218 0.0291736 1.55846 0.685136 0.727215C1.06449 0.24254 1.55448 0.00801952 2.1841 0.00801952C5.88863 0.0119281 9.59167 0.0114396 13.2955 0.0109511ZM67.941 32.2442H53.7575H53.7522C48.2042 32.2442 42.6536 32.2442 37.1055 32.252C36.8105 32.2546 36.7078 32.1972 36.7183 31.8846C36.7446 31.1784 36.7341 30.4696 36.7236 29.7608C36.7209 29.5732 36.7736 29.4846 36.9712 29.5133C37.0063 29.5168 37.0414 29.5156 37.0766 29.5145L37.0964 29.5138C37.1073 29.5135 37.1183 29.5133 37.1293 29.5133C48.2174 29.5133 59.3055 29.5133 70.3937 29.5055C70.7019 29.5029 70.8073 29.5602 70.7941 29.8885C70.7651 30.5738 70.7756 31.2618 70.7915 31.9497C70.7967 32.179 70.744 32.2546 70.499 32.2494C69.8913 32.2382 69.2822 32.2403 68.6727 32.2425C68.4288 32.2433 68.1849 32.2442 67.941 32.2442ZM105.481 32.2442H91.5504H91.5478L88.7737 32.244C84.1497 32.2436 79.5245 32.2433 74.9011 32.252C74.6034 32.252 74.5033 32.1946 74.5138 31.8819C74.5402 31.1758 74.5296 30.467 74.5191 29.7582C74.5165 29.5706 74.5692 29.4846 74.7667 29.5133C74.8019 29.5168 74.837 29.5156 74.8721 29.5145C74.8897 29.5139 74.9072 29.5133 74.9248 29.5133C86.0129 29.5133 97.1011 29.5133 108.189 29.5055C108.497 29.5055 108.6 29.5654 108.587 29.8911C108.558 30.5765 108.569 31.2644 108.584 31.9523C108.59 32.179 108.537 32.2546 108.292 32.2494C107.612 32.2399 106.93 32.2414 106.248 32.243C105.993 32.2436 105.737 32.2442 105.481 32.2442ZM122.644 29.5133H129.372H129.375C134.923 29.5133 140.474 29.5133 146.022 29.5055C146.309 29.5055 146.39 29.5758 146.383 29.8625C146.361 30.5608 146.367 31.2566 146.383 31.9549C146.388 32.192 146.322 32.2494 146.085 32.2494C144.275 32.2431 142.464 32.2435 140.653 32.2439H140.65L139.293 32.2442C130.426 32.2442 121.561 32.2442 112.694 32.252C112.394 32.252 112.301 32.1868 112.312 31.8793C112.336 31.194 112.33 30.5035 112.312 29.8182C112.307 29.5654 112.386 29.5081 112.631 29.5081C115.969 29.5133 119.306 29.5133 122.644 29.5133ZM19.8252 32.244L17.0499 32.2442L14.2747 32.244C9.64979 32.2436 5.02612 32.2433 0.400622 32.252C0.0897645 32.252 0.0107329 32.1686 0.0212704 31.8715C0.043285 31.2255 0.0357739 30.5773 0.028261 29.9289L0.0265392 29.7791C0.0239048 29.5836 0.0713238 29.4768 0.289978 29.5133C0.325103 29.5185 0.360228 29.5168 0.395353 29.515C0.412916 29.5142 0.430479 29.5133 0.448041 29.5133H33.6808C33.7295 29.5133 33.7722 29.5127 33.8099 29.5121C33.9457 29.5101 34.0142 29.509 34.0482 29.5428C34.0827 29.577 34.0817 29.6469 34.0797 29.7879C34.0792 29.8257 34.0786 29.8686 34.0786 29.9172C34.0795 30.1327 34.078 30.3482 34.0766 30.5636C34.0737 30.9941 34.0707 31.4243 34.0865 31.8533C34.0971 32.1556 34.0338 32.252 33.6993 32.252C29.0738 32.2433 24.4501 32.2436 19.8252 32.244ZM59.1843 36.1487V37.4792C59.183 37.8225 59.182 38.1659 59.1811 38.5093C59.1781 39.5393 59.1751 40.5697 59.1633 41.6015C59.1633 41.8178 59.2186 41.896 59.4425 41.8803C59.6822 41.8621 59.9272 41.8647 60.1696 41.8803C60.3514 41.8908 60.4014 41.8256 60.4014 41.651C60.3962 39.5482 60.3962 37.4453 60.4014 35.3424C60.4014 35.1574 60.3514 35.0845 60.1538 35.0897C59.7112 35.1027 59.2686 35.1027 58.8261 35.0897C58.6469 35.0845 58.5705 35.1496 58.5178 35.3164C58.3843 35.7298 58.2467 36.142 58.1091 36.5542C57.9536 37.0202 57.7981 37.4861 57.6485 37.9534C57.4686 38.5153 57.2979 39.0803 57.1271 39.646C57.0753 39.8175 57.0235 39.989 56.9715 40.1605C56.9118 40.1277 56.9022 40.0839 56.8928 40.0414C56.8911 40.0333 56.8893 40.0252 56.8872 40.0172C56.5489 38.67 56.1473 37.3403 55.7458 36.0114C55.6845 35.8084 55.6231 35.6054 55.5621 35.4024C55.4883 35.1548 55.3777 35.074 55.1221 35.0897C54.7243 35.1131 54.3213 35.1105 53.9235 35.0897C53.6706 35.0766 53.581 35.1366 53.5836 35.4076C53.591 36.4614 53.5909 37.5153 53.5909 38.5692C53.5908 39.3889 53.5907 40.2086 53.5942 41.0282C53.5942 41.1074 53.5836 41.1949 53.5729 41.2829C53.5464 41.502 53.5194 41.7241 53.6548 41.8282C53.7692 41.9178 53.9633 41.9032 54.1626 41.8884C54.2706 41.8803 54.3802 41.8721 54.4793 41.8803C54.7085 41.9012 54.7586 41.8126 54.7533 41.6015C54.7401 40.6243 54.7375 39.6446 54.7401 38.6674C54.7401 37.8179 54.7322 36.971 54.6927 36.1216C54.8543 36.674 55.0065 37.2263 55.1587 37.7787C55.2348 38.055 55.3109 38.3312 55.3882 38.6075C55.5262 39.0972 55.6677 39.5853 55.8092 40.073C55.9108 40.4235 56.0124 40.7739 56.1126 41.1247C56.3264 41.8726 56.3286 41.8726 57.1102 41.8826L57.1348 41.8829C57.3482 41.8855 57.4456 41.8282 57.5089 41.6224C57.6713 41.0863 57.8404 40.5535 58.0096 40.0203C58.1422 39.6023 58.2749 39.1841 58.4046 38.7638C58.596 38.1423 58.7797 37.5194 58.961 36.9045L58.9617 36.9019C59.0362 36.6493 59.1103 36.398 59.1843 36.1487ZM21.7234 38.5371L21.7207 38.5423L21.7273 38.539L21.7234 38.5371ZM87.4552 39.9294C87.4751 39.9289 87.4948 39.9286 87.5145 39.9286L87.5198 39.9338C87.5444 39.9338 87.5693 39.935 87.5942 39.9361C87.6439 39.9384 87.6937 39.9408 87.7411 39.9338C88.0124 39.8999 88.1652 39.9703 88.2627 40.2648C88.3918 40.6556 88.7343 40.8589 89.14 40.9449C89.4429 41.01 89.7432 41.0126 90.0488 40.9527C90.4888 40.8667 90.7548 40.6217 90.8181 40.2361C90.8866 39.8087 90.7101 39.4752 90.3044 39.2589C89.9872 39.0893 89.6428 39.0025 89.2973 38.9155L89.2579 38.9056C89.2291 38.8983 89.2003 38.891 89.1716 38.8837C88.7948 38.7873 88.4287 38.6622 88.0809 38.4876C87.4144 38.1515 87.072 37.6251 87.1009 36.8798C87.1299 36.1294 87.4645 35.5535 88.1705 35.2512C89.0425 34.8786 89.9382 34.8838 90.8049 35.2617C91.4477 35.5405 91.806 36.0616 91.9298 36.7443C91.9561 36.8824 91.9271 36.9372 91.7822 36.932C91.6242 36.9267 91.4661 36.9215 91.3081 36.932C90.9445 36.9528 90.6679 36.9554 90.5019 36.4942C90.2596 35.8167 88.9793 35.8688 88.6157 36.2258C88.268 36.5671 88.3417 37.1873 88.7711 37.4349C89.0374 37.5924 89.3366 37.6686 89.6355 37.7446L89.6879 37.758C90.2069 37.8883 90.7127 38.0498 91.1921 38.3C92.4962 38.9801 92.3829 40.9918 91.1632 41.6041C90.1147 42.1305 89.0319 42.1305 87.9729 41.6276C87.3776 41.3435 87.0588 40.8224 86.9007 40.197C86.8428 39.9703 86.906 39.8973 87.1352 39.926C87.2203 39.9368 87.308 39.9339 87.3955 39.9311C87.4154 39.9305 87.4354 39.9299 87.4552 39.9294ZM34.8909 41.8751H34.8848L34.89 41.8777C34.8903 41.8769 34.8906 41.876 34.8909 41.8751ZM0.309077 39.2597C0.308748 38.9996 0.308419 38.7396 0.308419 38.4798L0.305784 38.4772C0.305784 38.1966 0.306372 37.9157 0.306959 37.6348C0.308527 36.8854 0.310096 36.1354 0.300515 35.3867C0.297881 35.1522 0.363741 35.0923 0.600836 35.0923C1.92593 35.1027 3.25366 35.1027 4.57876 35.0923C4.80795 35.0897 4.88172 35.1392 4.88172 35.3815L4.88133 35.4198C4.87772 35.7812 4.8759 35.9638 4.78369 36.056C4.68954 36.1502 4.50115 36.1502 4.12038 36.1502C3.88946 36.1502 3.65879 36.1509 3.42821 36.1516C2.89066 36.1533 2.35362 36.1549 1.81529 36.1476C1.60717 36.145 1.51233 36.1841 1.52287 36.4186C1.54131 36.8017 1.53868 37.1873 1.52287 37.573C1.51497 37.7736 1.58873 37.8153 1.77577 37.8153C2.19376 37.8117 2.61118 37.812 3.02856 37.8123C3.50556 37.8127 3.98251 37.8131 4.46021 37.8075C4.66833 37.8049 4.77371 37.8414 4.74473 38.0733C4.73315 38.1668 4.74454 38.2708 4.75573 38.373C4.7751 38.5499 4.79388 38.7214 4.69204 38.8238C4.57952 38.9351 4.38048 38.9122 4.18172 38.8894C4.0966 38.8796 4.01153 38.8699 3.93334 38.8707C3.21678 38.8811 2.50286 38.8837 1.78631 38.8707C1.57292 38.8681 1.52024 38.9358 1.52551 39.1364C1.53868 39.6159 1.53868 40.0928 1.52551 40.5722C1.52024 40.7651 1.57819 40.8172 1.77314 40.8172C2.25232 40.8122 2.73091 40.8126 3.20947 40.8129C3.7412 40.8133 4.2729 40.8136 4.80532 40.8068C5.04768 40.8041 5.08983 40.8823 5.04241 41.0934C5.02256 41.1791 5.01507 41.277 5.00767 41.3738C4.99345 41.5597 4.97954 41.7417 4.87908 41.8256C4.76629 41.9202 4.55362 41.9036 4.34577 41.8873C4.26719 41.8812 4.18929 41.8751 4.11774 41.8751C3.68855 41.8761 3.2597 41.8756 2.83095 41.8752C2.08071 41.8745 1.33077 41.8737 0.579761 41.8803C0.355838 41.8829 0.30315 41.8178 0.30315 41.6015C0.311054 40.8217 0.310065 40.0403 0.309077 39.2597ZM123.614 39.2618C123.614 38.9993 123.614 38.7368 123.614 38.4746L123.611 38.4798C123.611 38.2243 123.611 37.9688 123.612 37.7133C123.613 36.9475 123.614 36.182 123.606 35.418C123.603 35.1861 123.643 35.0923 123.909 35.0949C125.215 35.1079 126.519 35.1079 127.826 35.0949C128.066 35.0923 128.124 35.1626 128.124 35.3919L128.123 35.4223C128.12 35.7842 128.118 35.9675 128.025 36.0603C127.93 36.1554 127.74 36.1554 127.354 36.1554C127.168 36.1554 126.982 36.1558 126.795 36.1561C126.235 36.1571 125.674 36.158 125.113 36.1502C124.896 36.145 124.82 36.2075 124.828 36.429C124.846 36.8538 124.849 37.2837 124.828 37.7085C124.815 37.956 124.912 37.9977 125.136 37.9951C125.579 37.9883 126.022 37.9886 126.465 37.989C126.864 37.9893 127.263 37.9896 127.663 37.9847C127.871 37.9821 127.926 38.042 127.926 38.2453L127.926 38.2687C127.927 38.6633 127.928 38.8614 127.829 38.9608C127.73 39.0609 127.53 39.0609 127.128 39.0609C126.936 39.0609 126.744 39.0617 126.552 39.0626C126.071 39.0647 125.589 39.0668 125.107 39.0557C124.878 39.0505 124.828 39.1234 124.831 39.3371C124.838 39.7376 124.837 40.1373 124.837 40.5371C124.837 40.8969 124.836 41.2567 124.841 41.6172C124.844 41.823 124.786 41.8934 124.578 41.8777C124.335 41.8595 124.09 41.8595 123.851 41.8777C123.645 41.8934 123.611 41.81 123.611 41.6276C123.615 40.8397 123.614 40.0504 123.614 39.2618ZM143.649 38.3882L143.648 38.7092L143.648 39.0426C143.648 39.2583 143.648 39.4742 143.647 39.6902C143.646 40.3377 143.645 40.986 143.653 41.6328C143.656 41.8256 143.601 41.8908 143.406 41.8777C143.296 41.8707 143.174 41.8801 143.054 41.8894C142.82 41.9076 142.59 41.9254 142.46 41.8204C142.314 41.6999 142.344 41.445 142.373 41.1934C142.385 41.0913 142.397 40.9897 142.397 40.898C142.389 39.4127 142.389 37.9248 142.397 36.4369C142.399 36.2232 142.347 36.1476 142.12 36.1554C141.856 36.1652 141.592 36.1638 141.327 36.1623C141.097 36.1611 140.867 36.1598 140.637 36.1659C140.408 36.1737 140.305 36.1294 140.31 35.8636L140.311 35.8263C140.317 35.465 140.32 35.2809 140.414 35.1871C140.511 35.0897 140.706 35.0897 141.103 35.0897C141.461 35.0897 141.818 35.09 142.176 35.0903H142.177C143.25 35.0913 144.322 35.0923 145.395 35.0845C145.629 35.0845 145.695 35.1418 145.695 35.3789L145.695 35.41C145.69 35.784 145.687 35.9723 145.592 36.0671C145.495 36.1632 145.303 36.1632 144.915 36.1632C144.82 36.1632 144.724 36.1641 144.628 36.1649C144.388 36.1671 144.147 36.1692 143.906 36.158C143.695 36.1476 143.643 36.2206 143.643 36.4212C143.651 37.0762 143.65 37.7326 143.649 38.3882ZM91.1474 20.8256C92.0615 20.8386 92.7807 21.5865 92.7728 22.5116H92.7754C92.7675 23.4001 92.0088 24.1376 91.1105 24.1297C90.1516 24.1219 89.4324 23.4027 89.4403 22.4594C89.4482 21.524 90.1937 20.81 91.1474 20.8256Z" fill="white"/>
<path d="M65.3115 15.1317C66.2651 15.9525 67.145 16.7447 67.9985 17.5603C68.8099 18.3342 69.595 19.1316 70.3405 19.968C71.4206 21.1771 71.2863 22.7797 70.6751 23.7751C69.9374 24.9789 68.7362 25.0649 67.7377 24.0643C65.5222 21.852 63.2408 19.7074 60.588 17.9954C58.6807 16.7629 56.6575 15.7962 54.4025 15.3558C53.5858 15.1968 52.7586 15.1213 51.9235 15.1213C49.2997 15.1213 46.6784 15.1213 44.0546 15.1213C43.0641 15.1213 42.4766 15.6033 42.2869 16.5753C42.2369 16.8307 42.2184 17.0912 42.2184 17.3518C42.2184 18.9544 42.2263 20.5595 42.2184 22.1621C42.2132 22.9881 41.9286 23.7099 41.3227 24.291C40.651 24.9346 39.7026 24.9242 39.0308 24.2754C38.4855 23.7464 38.1931 23.0898 38.1852 22.3497C38.1641 20.2052 38.1193 18.058 38.2036 15.916C38.2747 14.0868 38.8807 12.406 40.1794 11.038C41.0303 10.139 42.0735 9.65434 43.3407 9.65695C50.63 9.66216 57.9167 9.65955 65.2061 9.65955C66.3125 9.65955 66.9474 9.15142 67.1503 8.07263C67.2793 7.3821 67.1713 6.72544 66.7446 6.14174C66.4205 5.69876 66.0069 5.47466 65.4326 5.47466C57.1633 5.48248 48.8966 5.47988 40.6273 5.47988C39.318 5.47988 38.5935 4.94048 38.2853 3.67146C38.0139 2.55619 38.1378 1.49824 38.9333 0.594034C39.2837 0.195349 39.7316 0.00512695 40.2716 0.00512695C48.6569 0.00512695 57.0395 0.00512695 65.4247 0.0103385C67.1213 0.0103385 68.3832 0.862429 69.3869 2.12884C70.4643 3.48906 70.978 5.06556 71.1018 6.77495C71.2415 8.73189 70.9201 10.595 69.8821 12.2914C69.1023 13.5656 68.0565 14.5454 66.5681 14.9701C66.1834 15.0796 65.7883 15.1187 65.3115 15.1265V15.1317Z" fill="white"/>
<path d="M145.3 13.6021C145.3 16.4034 145.3 19.2046 145.3 22.0058C145.3 22.8579 145.081 23.6318 144.454 24.2546C143.727 24.9764 142.65 24.9347 141.978 24.1608C141.462 23.564 141.243 22.8683 141.246 22.0892C141.248 17.873 141.251 13.6543 141.243 9.4381C141.243 8.82574 141.243 8.21078 141.138 7.60103C141.124 7.52025 141.127 7.41602 141.037 7.38996C140.943 7.3639 140.893 7.45771 140.84 7.52025C140.421 8.01795 140.073 8.56256 139.72 9.10456C136.717 13.6986 133.709 18.2899 130.716 22.8918C130.118 23.809 129.362 24.4813 128.258 24.6924C126.691 24.992 125.302 24.3979 124.428 23.0611C122.702 20.4241 120.979 17.7844 119.254 15.1474C117.699 12.7709 116.145 10.397 114.586 8.02316C114.459 7.83294 114.309 7.65835 114.159 7.48377C114.006 7.30657 113.927 7.35869 113.887 7.57236C113.798 8.07788 113.785 8.58601 113.785 9.09414C113.777 13.3937 113.779 17.6958 113.782 21.9954C113.782 22.8136 113.584 23.5588 113.015 24.1816C112.299 24.966 111.211 24.9686 110.492 24.1868C109.981 23.6318 109.73 22.9621 109.728 22.2221C109.72 16.5258 109.715 10.8296 109.728 5.13335C109.73 3.83306 110.047 2.59792 110.763 1.48786C111.596 0.195392 113.05 -0.320553 114.364 0.205815C115.094 0.497662 115.6 1.06312 116.092 1.63118C116.775 2.41552 117.281 3.32233 117.844 4.18484C120.642 8.46354 123.432 12.7501 126.224 17.034C126.419 17.3336 126.651 17.602 126.914 17.8444C127.294 18.1935 127.707 18.2013 128.097 17.8548C128.356 17.6255 128.579 17.3623 128.769 17.0704C131.899 12.2471 135.028 7.42383 138.166 2.60574C138.643 1.87352 139.112 1.13087 139.849 0.607105C141.285 -0.40915 143.121 -0.117302 144.133 1.31067C145.013 2.55102 145.297 3.96596 145.303 5.44865C145.31 8.16648 145.303 10.8843 145.303 13.6021H145.3Z" fill="white"/>
<path d="M16.7412 9.66224C21.3961 9.66224 26.0511 9.67788 30.7061 9.64922C31.715 9.644 32.3578 10.0896 32.7266 10.9443C33.243 12.1429 33.1771 13.3182 32.3815 14.4022C32.018 14.8973 31.5175 15.1266 30.8878 15.1266C22.0837 15.1214 13.277 15.1266 4.47284 15.1161C4.18042 15.1161 4.07768 15.1657 4.08822 15.481C4.11456 16.2705 4.09612 17.0627 4.09612 17.8548C4.09612 18.7825 4.6309 19.3089 5.56084 19.3089C14.2174 19.3089 22.8767 19.3089 31.5333 19.3089C32.7767 19.3089 33.4748 19.7987 33.8067 20.9922C34.1097 22.084 34.0201 23.1367 33.2904 24.0696C32.9269 24.5334 32.4527 24.7706 31.8468 24.7706C22.9689 24.7654 14.0884 24.7706 5.21047 24.7654C3.79053 24.7654 2.73678 24.0279 1.88323 22.9908C0.789964 21.6619 0.186689 20.1062 0.0839482 18.4125C-0.0530399 16.1585 -0.00825536 13.8966 0.0628731 11.6374C0.102389 10.4179 0.742545 9.8212 1.98334 9.70394C2.24415 9.67788 2.50758 9.66746 2.77102 9.66746C7.42599 9.66746 12.0809 9.66746 16.7359 9.66746L16.7412 9.66224Z" fill="white"/>
<path d="M98.2603 9.8368C97.6492 9.22705 96.9432 8.79189 96.0817 8.59645C94.3773 8.2134 92.5885 8.92999 91.6902 10.4049C91.0527 11.4498 90.5995 12.5859 90.0648 13.6803C88.521 16.8464 86.9773 20.0124 85.4625 23.1914C85.1042 23.9419 84.7091 24.6298 83.9872 25.0885C82.7728 25.8572 81.1869 25.7451 80.1147 24.8148C79.0214 23.8663 78.6868 22.3237 79.3112 21.0312C81.0578 17.4196 82.8097 13.8106 84.5589 10.199C85.8945 7.44209 87.2275 4.68257 88.5605 1.92565C89.1638 0.677477 90.1728 0.0130028 91.5664 0.0208201C92.9494 0.0286375 93.9241 0.71917 94.5195 1.95431C95.734 4.47931 96.9616 7.00171 98.1813 9.52411C98.2261 9.61792 98.292 9.7013 98.2893 9.81335C98.2814 9.82117 98.2709 9.82899 98.263 9.8342L98.2603 9.8368Z" fill="white"/>
<path d="M16.9998 0.0105827C21.9182 0.0105827 26.8366 0.0157942 31.7523 0.00537109C32.5031 0.00537109 33.0406 0.312853 33.441 0.909578C34.2577 2.11866 34.1128 3.9844 33.1301 4.96417C32.8035 5.2899 32.4162 5.46709 31.9499 5.47751C31.8551 5.47751 31.7602 5.47751 31.6654 5.47751C21.9551 5.47751 12.2473 5.47751 2.53699 5.47751C1.1355 5.47751 0.384697 4.88861 0.108086 3.51015C-0.0868584 2.51213 0.0290546 1.55842 0.685017 0.727173C1.06437 0.242497 1.55436 0.00797688 2.18398 0.00797688C7.12346 0.0131884 12.0629 0.0105827 16.9998 0.0105827Z" fill="white"/>
<path d="M89.7822 20.0412C90.2643 19.0353 90.7411 18.0295 91.2285 17.0263C92.0373 15.356 92.8539 13.6935 93.66 12.0232C94.179 10.947 95.08 10.3972 96.2338 10.2669C97.5431 10.1184 98.5521 10.6499 99.2291 11.7652C99.7929 12.6929 100.225 13.6909 100.71 14.6602C101.648 16.5338 102.575 18.41 103.494 20.2939C103.847 21.0183 104.132 21.7584 104.105 22.5922C104.058 24.0697 102.817 25.4221 101.331 25.5706C99.9325 25.7088 98.884 25.1381 98.1201 24.0072C97.6775 23.3557 97.3982 22.6209 97.0795 21.9095C96.6791 21.0131 96.1838 20.1845 95.3803 19.5826C93.7602 18.3683 91.5025 18.5012 90.0272 19.8926C89.9587 19.9578 89.8902 20.0203 89.8217 20.0829C89.8086 20.0698 89.7954 20.0568 89.7822 20.0438V20.0412Z" fill="white"/>
<path d="M53.7573 32.244C48.2093 32.244 42.6587 32.244 37.1106 32.2519C36.8156 32.2519 36.7128 32.1971 36.7234 31.8844C36.7497 31.1783 36.7366 30.4695 36.7287 29.7607C36.7287 29.5731 36.7787 29.4871 36.9763 29.5132C37.029 29.521 37.0817 29.5132 37.1344 29.5132C48.2225 29.5132 59.3106 29.5132 70.3988 29.5054C70.707 29.5054 70.8124 29.5627 70.7992 29.8884C70.7702 30.5737 70.7807 31.2617 70.7965 31.9496C70.8018 32.1763 70.7491 32.2519 70.5041 32.2493C69.6506 32.2336 68.7997 32.244 67.9461 32.244C63.2174 32.244 58.4913 32.244 53.7626 32.244H53.7573Z" fill="white"/>
<path d="M91.5503 32.244C86.0023 32.244 80.4516 32.244 74.9036 32.2519C74.6086 32.2519 74.5058 32.1945 74.5164 31.8818C74.5427 31.1757 74.5295 30.4669 74.5216 29.7581C74.5216 29.5679 74.5743 29.4845 74.7693 29.5132C74.8219 29.521 74.8746 29.5132 74.9273 29.5132C86.0155 29.5132 97.1036 29.5132 108.192 29.5054C108.503 29.5054 108.605 29.5653 108.59 29.891C108.561 30.5763 108.571 31.2643 108.587 31.9522C108.592 32.1815 108.537 32.2545 108.294 32.2493C107.357 32.2336 106.421 32.244 105.484 32.244C100.839 32.244 96.1974 32.244 91.5529 32.244H91.5503Z" fill="white"/>
<path d="M129.372 29.5132C134.92 29.5132 140.471 29.5132 146.019 29.5054C146.309 29.5054 146.39 29.5757 146.38 29.8624C146.359 30.5581 146.362 31.2565 146.38 31.9548C146.385 32.1893 146.319 32.2493 146.082 32.2493C143.819 32.2388 141.554 32.244 139.291 32.244C130.423 32.244 121.559 32.244 112.691 32.2519C112.388 32.2519 112.299 32.1841 112.309 31.8792C112.336 31.1939 112.33 30.506 112.309 29.8181C112.302 29.5653 112.381 29.508 112.628 29.508C115.966 29.5158 119.304 29.5132 122.641 29.5132C124.883 29.5132 127.128 29.5132 129.37 29.5132H129.372Z" fill="white"/>
<path d="M17.0497 32.244C11.4991 32.244 5.95106 32.2414 0.400401 32.2519C0.089543 32.2519 0.0131458 32.1685 0.0210489 31.8714C0.0447584 31.1757 0.0342209 30.4773 0.0263177 29.779C0.0263177 29.5835 0.0711023 29.4767 0.289756 29.5132C0.33981 29.521 0.395132 29.5132 0.44782 29.5132C11.5254 29.5132 22.603 29.5132 33.6806 29.5132C34.1311 29.5132 34.0758 29.4585 34.0784 29.9171C34.081 30.5633 34.0626 31.2095 34.0863 31.8532C34.0969 32.1554 34.0336 32.2519 33.6991 32.2519C28.1484 32.2388 22.6004 32.244 17.0497 32.244Z" fill="white"/>
<path d="M59.1845 36.137C58.929 36.9969 58.6708 37.8802 58.4021 38.761C58.1097 39.7147 57.7962 40.6632 57.5064 41.6195C57.4432 41.828 57.3457 41.8827 57.1323 41.8801C56.3262 41.8697 56.3289 41.8801 56.1102 41.1218C55.8705 40.2828 55.6202 39.4463 55.3857 38.6046C55.1539 37.776 54.9326 36.9474 54.6903 36.1187C54.7298 36.9682 54.7377 37.8151 54.7377 38.6646C54.7377 39.6417 54.7377 40.6215 54.7509 41.5987C54.7535 41.8124 54.7061 41.8983 54.4769 41.8775C54.195 41.854 53.8288 41.9635 53.6523 41.8254C53.4626 41.6769 53.5917 41.3016 53.5917 41.0254C53.5865 39.1518 53.5944 37.2783 53.5812 35.4047C53.5812 35.1311 53.6681 35.0738 53.921 35.0868C54.3188 35.1077 54.7219 35.1077 55.1197 35.0868C55.3752 35.0712 55.4832 35.152 55.5596 35.3995C56.0206 36.9343 56.4948 38.4613 56.8847 40.0144C56.8979 40.0639 56.8979 40.1186 56.969 40.1577C57.1956 39.4202 57.4116 38.6828 57.646 37.9506C57.9306 37.0698 58.2335 36.1943 58.5154 35.3135C58.5681 35.1468 58.6445 35.0816 58.8236 35.0868C59.2662 35.0999 59.7088 35.0999 60.1514 35.0868C60.3489 35.0816 60.4016 35.1546 60.399 35.3396C60.3937 37.4425 60.3937 39.5453 60.399 41.6482C60.399 41.8228 60.3516 41.8879 60.1672 41.8775C59.9248 41.8645 59.6824 41.8593 59.4401 41.8775C59.2161 41.8957 59.1582 41.8176 59.1608 41.5987C59.1766 40.2254 59.1766 38.8522 59.1819 37.4763C59.1819 37.0229 59.1819 36.5695 59.1819 36.1344L59.1845 36.137Z" fill="white"/>
<path d="M107.473 34.9905C109.34 34.9931 110.544 36.038 110.787 37.6536C110.934 38.636 110.853 39.5845 110.355 40.4678C109.744 41.5518 108.758 42.0079 107.546 41.9818C106.316 41.9557 105.373 41.4085 104.87 40.275C104.335 39.0737 104.33 37.8412 104.909 36.653C105.468 35.5064 106.458 35.0061 107.473 34.9905ZM109.538 38.4405C109.549 37.9949 109.477 37.5259 109.272 37.0829C108.993 36.4758 108.524 36.1162 107.839 36.0641C107.146 36.0119 106.574 36.2334 106.192 36.8328C105.623 37.7266 105.673 39.3656 106.292 40.2229C107.02 41.2339 108.6 41.1401 109.193 40.0483C109.459 39.5584 109.541 39.0294 109.535 38.4405H109.538Z" fill="white"/>
<path d="M21.7209 38.5422C22.3663 38.8471 22.5059 39.41 22.5507 40.0067C22.5929 40.5852 22.5059 41.1715 22.6192 41.75C22.6456 41.8881 22.5507 41.8724 22.4664 41.875C22.203 41.875 21.9395 41.8594 21.6761 41.8803C21.4443 41.9011 21.389 41.7838 21.3626 41.5988C21.2994 41.1532 21.3126 40.7077 21.3073 40.2595C21.2994 39.3917 21.0175 39.1051 20.1324 39.0764C19.8057 39.066 19.479 39.0843 19.1524 39.0712C18.9574 39.0634 18.8995 39.1312 18.9021 39.3214C18.91 40.0823 18.8995 40.8405 18.91 41.6014C18.9126 41.8125 18.8652 41.9011 18.636 41.8829C18.3331 41.8594 17.9405 41.9767 17.7509 41.8281C17.548 41.6692 17.6903 41.2653 17.6876 40.9682C17.6824 39.1259 17.6876 37.2837 17.6797 35.4414C17.6797 35.1808 17.7245 35.0792 18.0196 35.0896C19.018 35.1287 20.0217 35.027 21.0175 35.1391C22.2952 35.2824 22.9986 36.442 22.5692 37.638C22.4216 38.0498 22.1345 38.3338 21.7183 38.5475L21.7209 38.5422ZM18.91 37.0153C18.91 37.3306 18.91 37.5911 18.91 37.8491C18.91 37.9559 18.9311 38.0341 19.0602 38.0315C19.6055 38.0185 20.1561 38.0862 20.6961 37.9794C21.165 37.8856 21.4074 37.5625 21.4153 37.0856C21.4232 36.627 21.1598 36.2987 20.7066 36.1788C20.4274 36.1058 20.1429 36.1215 19.861 36.1241C19.5581 36.1241 19.155 36.0225 18.9759 36.1736C18.7677 36.3508 18.9442 36.7599 18.91 37.0127V37.0153Z" fill="white"/>
<path d="M87.5143 39.9283C87.5881 39.9283 87.6618 39.9361 87.7356 39.9283C88.0069 39.8918 88.1597 39.9648 88.2572 40.2593C88.3863 40.6501 88.7314 40.8534 89.1344 40.9394C89.4374 41.0045 89.7377 41.0071 90.0433 40.9472C90.4832 40.8612 90.752 40.6163 90.8125 40.2306C90.881 39.8033 90.7045 39.4697 90.2988 39.2534C89.9432 39.0632 89.5533 38.9772 89.1661 38.8782C88.7893 38.7818 88.4232 38.6567 88.0754 38.4821C87.4089 38.146 87.0664 37.6196 87.0954 36.8743C87.1244 36.1239 87.459 35.548 88.165 35.2457C89.037 34.8731 89.9327 34.8809 90.7994 35.2562C91.4422 35.535 91.8004 36.0561 91.9243 36.7389C91.9506 36.8796 91.9216 36.9317 91.7767 36.9265C91.6187 36.9213 91.4606 36.9187 91.3025 36.9265C90.939 36.9473 90.665 36.9499 90.4964 36.4887C90.2541 35.8138 88.9737 35.8633 88.6102 36.2203C88.2651 36.5591 88.3389 37.1792 88.7656 37.4294C89.0501 37.5935 89.3689 37.6717 89.6824 37.7525C90.2014 37.8854 90.7072 38.0443 91.1866 38.2945C92.4907 38.9772 92.3774 40.9863 91.1577 41.5986C90.1118 42.125 89.0264 42.125 87.9674 41.6221C87.372 41.3381 87.0533 40.8169 86.8952 40.1915C86.8373 39.9648 86.9005 39.8918 87.1297 39.9205C87.2535 39.9361 87.3826 39.9231 87.509 39.9231L87.5143 39.9283Z" fill="white"/>
<path d="M34.8842 41.8748C35.2056 40.9289 35.5138 40.0143 35.822 39.1023C36.2435 37.8541 36.6729 36.6059 37.0839 35.3525C37.1498 35.1493 37.2367 35.0711 37.458 35.0841C37.8136 35.105 38.1719 35.092 38.5302 35.0868C38.6698 35.0868 38.7594 35.1076 38.812 35.2639C39.5681 37.432 40.3321 39.5974 41.0934 41.7628C41.104 41.7914 41.1013 41.8227 41.1066 41.8748C40.722 41.8748 40.3453 41.867 39.9685 41.8774C39.8158 41.8826 39.7762 41.8045 39.7341 41.6846C39.5918 41.2625 39.4311 40.8429 39.2941 40.4182C39.2283 40.2149 39.1229 40.1498 38.9095 40.155C38.2799 40.1706 37.6476 40.1732 37.0154 40.155C36.7651 40.1472 36.665 40.241 36.5992 40.4625C36.4832 40.8612 36.3305 41.2494 36.2119 41.6455C36.1592 41.8253 36.067 41.8852 35.88 41.8774C35.5586 41.8618 35.2345 41.8722 34.8789 41.8722L34.8842 41.8748ZM37.9243 36.1369C37.6266 37.0906 37.3526 37.9687 37.076 38.8495C37.0365 38.9798 36.9864 39.0944 37.2051 39.0918C37.7082 39.0866 38.2114 39.0892 38.7146 39.0918C38.8647 39.0918 38.8963 39.0345 38.8516 38.9016C38.5486 38.0026 38.2483 37.1036 37.9243 36.1395V36.1369Z" fill="white"/>
<path d="M0.308078 38.4795C0.308078 37.4502 0.315982 36.4183 0.30281 35.389C0.300175 35.1545 0.366035 35.092 0.60313 35.0946C1.92823 35.105 3.25596 35.105 4.58105 35.0946C4.81025 35.0946 4.88664 35.1441 4.88401 35.3838C4.87611 36.1525 4.88664 36.1525 4.12267 36.1525C3.35343 36.1525 2.58682 36.1577 1.81758 36.1499C1.60947 36.1473 1.51199 36.189 1.52517 36.4209C1.54361 36.804 1.54097 37.1922 1.52517 37.5753C1.51726 37.7733 1.58839 37.8176 1.77807 37.8176C2.67376 37.8098 3.56682 37.8176 4.46251 37.8098C4.67062 37.8098 4.776 37.8437 4.74702 38.0756C4.71541 38.3309 4.85503 38.6645 4.69433 38.826C4.53364 38.9876 4.1938 38.8703 3.93563 38.8729C3.21908 38.8808 2.50252 38.8834 1.7886 38.8729C1.57522 38.8703 1.52253 38.9381 1.5278 39.1387C1.54097 39.6182 1.54097 40.0977 1.5278 40.5745C1.52253 40.7674 1.58049 40.8221 1.77543 40.8195C2.78704 40.8116 3.79601 40.8221 4.80761 40.809C5.04998 40.8064 5.09213 40.8846 5.04471 41.0957C4.98675 41.3458 5.03417 41.7002 4.88137 41.8279C4.72595 41.9582 4.38084 41.8774 4.12004 41.8774C2.93983 41.8774 1.76226 41.8722 0.582055 41.8826C0.358132 41.8826 0.30281 41.8201 0.305444 41.6038C0.315982 40.5641 0.310713 39.5218 0.310713 38.4821L0.308078 38.4795Z" fill="white"/>
<path d="M123.614 38.4743C123.614 37.4528 123.619 36.434 123.608 35.4125C123.608 35.1832 123.645 35.0868 123.911 35.0894C125.218 35.105 126.522 35.1024 127.829 35.0894C128.068 35.0894 128.126 35.1572 128.126 35.3865C128.118 36.1474 128.126 36.15 127.357 36.15C126.609 36.15 125.861 36.1578 125.115 36.1447C124.897 36.1421 124.82 36.2021 124.831 36.4236C124.847 36.8509 124.852 37.2783 124.831 37.703C124.818 37.9506 124.915 37.9922 125.139 37.9896C125.982 37.9766 126.825 37.9896 127.665 37.9792C127.873 37.9766 127.929 38.0365 127.929 38.2398C127.929 39.0554 127.939 39.0554 127.131 39.0554C126.456 39.0554 125.782 39.0658 125.11 39.0502C124.881 39.045 124.831 39.1179 124.833 39.3316C124.847 40.0925 124.833 40.8508 124.844 41.6117C124.847 41.8149 124.789 41.8853 124.58 41.8723C124.341 41.854 124.096 41.854 123.853 41.8723C123.648 41.8879 123.611 41.8045 123.614 41.6221C123.622 40.572 123.616 39.5192 123.616 38.4691L123.614 38.4743Z" fill="white"/>
<path d="M143.648 39.0424C143.648 39.9049 143.642 40.77 143.653 41.6326C143.653 41.8254 143.6 41.8879 143.405 41.8775C143.081 41.8567 142.657 41.9817 142.459 41.8202C142.254 41.6534 142.399 41.2156 142.396 40.8977C142.391 39.4098 142.388 37.9219 142.396 36.4366C142.396 36.223 142.346 36.1474 142.12 36.1552C141.627 36.1708 141.132 36.15 140.636 36.1656C140.405 36.1708 140.304 36.1291 140.31 35.8634C140.323 35.0894 140.31 35.0894 141.103 35.0894C142.533 35.0894 143.964 35.0947 145.394 35.0842C145.629 35.0842 145.697 35.1416 145.694 35.3787C145.687 36.163 145.694 36.163 144.915 36.163C144.577 36.163 144.24 36.1734 143.906 36.1578C143.695 36.1474 143.64 36.2204 143.642 36.421C143.653 37.2939 143.648 38.1695 143.648 39.0424Z" fill="white"/>
<path d="M92.7727 22.5114C92.7648 23.4 92.0061 24.1348 91.1077 24.1296C90.1488 24.1218 89.4323 23.4026 89.4375 22.4593C89.4454 21.5264 90.191 20.8098 91.1446 20.8254C92.0587 20.8411 92.7806 21.5863 92.77 22.5114H92.7727Z" fill="white"/>
<path d="M98.2861 9.81348C98.3256 9.83432 98.3546 9.88123 98.3204 9.90207C98.2729 9.92813 98.2756 9.86559 98.2598 9.83432C98.2677 9.82651 98.2782 9.82129 98.2861 9.81348Z" fill="white"/>
<path d="M89.8216 20.0802C89.8032 20.0906 89.7821 20.101 89.7637 20.1115C89.7689 20.088 89.7768 20.0645 89.7821 20.0437C89.7953 20.0567 89.8085 20.0698 89.8216 20.0828V20.0802Z" fill="white"/>
</g>
<defs>
<clipPath id="clip0_119_828">
<rect width="146.382" height="42" fill="white"/>
</clipPath>
</defs>
</svg>
