<svg xmlns="http://www.w3.org/2000/svg" viewBox="0 0 24 24" fill="#4285F4"><path d="M19.527 4.799c1.212 2.608.937 5.678-.405 8.173-1.101 2.047-2.744 3.74-4.098 5.614-.619.858-1.244 1.75-1.669 2.727-.141.325-.263.658-.383.992-.121.333-.224.673-.34 1.008-.109.314-.236.684-.627.687h-.007c-.466-.001-.579-.53-.695-.887-.284-.874-.581-1.713-1.044-2.525-1.404-2.469-3.614-4.205-5.084-6.59-1.36-2.206-1.832-4.992-.975-7.478C5.263 3.277 7.728 1.497 10.539.691c2.68-.77 5.834-.168 8.089 1.706.348.29.67.605.964.942l-2.34 2.228c-.88-.852-2.14-1.398-3.614-1.398-2.412 0-4.37 1.96-4.37 4.374s1.958 4.374 4.37 4.374c1.826 0 3.395-1.12 4.053-2.71H12v-3.577h7.527z"/></svg>