<svg xmlns="http://www.w3.org/2000/svg" viewBox="0 0 24 24" fill="#326CE5"><path d="M10.204 14.35l.007.01-.999 2.413a5.171 5.171 0 0 1-2.075-2.597l2.578-.437.004.005a.44.44 0 0 1 .484.606zm-.833-2.129a.44.44 0 0 0 .173-.756l.002-.011L7.585 9.7a5.143 5.143 0 0 0-.73 3.255l2.514-.725.002-.009zm1.145-1.98a.44.44 0 0 0 .699-.337l.01-.005.15-2.62a5.144 5.144 0 0 0-3.01 1.442l2.147 1.523.004-.002zm2.043-.338a.44.44 0 0 0 .699.337l.004.002 2.147-1.523a5.144 5.144 0 0 0-3.01-1.442l.15 2.62.01.006zm1.488 1.981a.44.44 0 0 0 .173.756l.002.01 2.514.724a5.143 5.143 0 0 0-.73-3.255l-1.96 1.754.001.011zm-.296 2.132a.44.44 0 0 0 .484-.606l.004-.005 2.578.437a5.171 5.171 0 0 1-2.075 2.597l-.999-2.413.008-.01zm-3.601 3.056a5.192 5.192 0 0 0 3.696 0L12 14.996l-1.845 2.076zM12 0C5.373 0 0 5.373 0 12s5.373 12 12 12 12-5.373 12-12S18.627 0 12 0zm5.894 16.259a.643.643 0 0 1-.293.166 6.385 6.385 0 0 1-11.202 0 .642.642 0 0 1-.293-.166A6.334 6.334 0 0 1 5.6 12c0-1.16.311-2.248.855-3.183a.64.64 0 0 1 .087-.327A6.348 6.348 0 0 1 12 5.6a6.348 6.348 0 0 1 5.458 3.09.64.64 0 0 1 .087.327c.544.935.855 2.023.855 3.183a6.334 6.334 0 0 1-.506 4.259z"/></svg>