<svg xmlns="http://www.w3.org/2000/svg" viewBox="0 0 24 24" fill="#5FA04E"><path d="M11.998 24c-.321 0-.641-.084-.922-.247l-2.936-1.737c-.438-.245-.224-.332-.08-.383.585-.203.703-.25 1.328-.604.065-.037.151-.023.218.017l2.256 1.339a.29.29 0 0 0 .272 0l8.795-5.076a.277.277 0 0 0 .134-.238V6.921a.28.28 0 0 0-.137-.242l-8.791-5.072a.278.278 0 0 0-.271 0L3.075 6.68a.28.28 0 0 0-.138.24v10.15a.27.27 0 0 0 .137.236l2.409 1.392c1.307.654 2.108-.116 2.108-.89V7.787c0-.142.114-.253.256-.253h1.115c.139 0 .255.112.255.253v10.021c0 1.745-.95 2.745-2.604 2.745-.508 0-.909 0-2.026-.551l-2.31-1.33A1.85 1.85 0 0 1 1.354 17.1V6.95c0-.678.362-1.308.951-1.647L11.1.227a1.932 1.932 0 0 1 1.801 0l8.794 5.076c.588.34.952.97.952 1.647V17.1c0 .678-.364 1.308-.952 1.647l-8.794 5.076a1.86 1.86 0 0 1-.903.177zm2.722-6.979c-3.867 0-4.676-1.776-4.676-3.266 0-.142.114-.253.255-.253h1.138c.127 0 .233.092.252.216.172 1.16.683 1.746 3.031 1.746 1.864 0 2.659-.422 2.659-1.412 0-.571-.225-1.006-3.124-1.29-2.423-.24-3.924-.776-3.924-2.712 0-1.787 1.506-2.852 4.033-2.852 2.836 0 4.238.985 4.414 3.098a.258.258 0 0 1-.065.19.26.26 0 0 1-.186.081h-1.143a.252.252 0 0 1-.245-.198c-.272-1.209-.935-1.596-2.775-1.596-2.044 0-2.283.712-2.283 1.247 0 .647.281.836 3.027 1.201 2.72.362 4.019.874 4.019 2.789 0 1.932-1.61 3.034-4.42 3.034z"/></svg>