<svg xmlns="http://www.w3.org/2000/svg" viewBox="0 0 24 24" fill="#4169E1"><path d="M23.5594 14.7228a.5269.5269 0 0 0-.0437-.1332c-.5765-1.4-.732-3.5653-.436-6.0625C22.8498 5.263 20.442 2.485 17.589.9867 16.5.3855 15.2894.0358 14.0277.0042c-1.2246-.031-2.4471.2486-3.5963.851C9.5041 1.3687 8.4503 1.7949 7.6003 2.1297 6.9765 2.3748 6.5195 2.6064 6.2565 2.764c-1.3589.815-2.454 2.016-3.2135 3.5118-.9225 1.816-1.2953 3.848-1.0778 5.878.0634.5912.1737 1.1792.3282 1.7504.0432.16.0978.4116.105.4517-.024.1605-.2107 1.6382-.3231 2.5235-.105.8276-.2098 1.6551-.281 2.4856-.1186 1.3826-.0385 2.2055.2672 2.7396.2115.3695.5094.5883.8362.6137.0942.0074.3427.0437.939-.5558.5565-.559 1.3672-1.4802 2.3227-2.8035.0448-.0622.2399-.337.3697-.5203l.0046.0013c.7587.2577 1.5601.4035 2.3774.4339.1845.0069.4184.0022.6812-.0128.1077.1137.2312.2383.4032.4008.4158.393.6751.5895 1.1371.8554.7048.4055 1.5651.6239 2.444.612.366-.005.7364-.0541 1.1019-.1453.2618.339.5816.6333.9483.8618.6738.4198 1.4888.6386 2.2872.6386.1968 0 .391-.013.5832-.0399.5365-.075 1.0322-.2846 1.4737-.6228.4263-.3267.7643-.7584.9902-1.2619.0855-.1906.1497-.3878.2044-.5678l.0127-.0417c.7853-2.807.826-5.3978.1207-7.7072zM3.392 14.4148c-.0413-.155-.0842-.3568-.1147-.4939-.1363-.5057-.2349-1.0293-.2929-1.5693-.1927-1.7974.1374-3.5953.9566-5.2084.6684-1.316 1.6237-2.3752 2.8042-3.0833l.0426-.0262c.2123-.1349.627-.3428 1.2119-.572.7893-.3092 1.7783-.7095 2.658-1.196a6.856 6.856 0 0 1 3.0605-.7282c1.076.0269 2.1013.327 3.0416.8595 2.4825 1.3041 4.6068 3.7516 4.8688 6.6175.2877 2.4192.1461 4.4732.4067 5.7702-1.0133-.5625-2.498-.4208-4.2223.5432-.5498-.4654-1.2693-.729-2.0195-.729-.5775 0-1.1397.163-1.6282.4558-.1093-.1032-.2311-.2226-.3831-.3764-.1828-.185-.3222-.3089-.4507-.421.4258-.7809.6458-1.6589.6458-2.5796 0-.7049-.1326-1.3972-.3943-2.058-.6527-1.6483-2.0036-2.7987-3.6261-3.0885-.8039-.1435-1.684-.0689-2.6155.2222-1.0399.325-1.8822.9553-2.4834 1.8293-.547.7951-.836 1.7269-.836 2.694 0 .6862.1376 1.3594.409 2.0018.1558.3685.3598.7145.6019 1.0302-.7653 1.2609-1.4591 1.9716-1.7832 2.0838l-.0126.0077-.0137.0037z"/></svg>