<svg xmlns="http://www.w3.org/2000/svg" viewBox="0 0 24 24" fill="#3776AB"><path d="M14.25.18l.9.2.73.26.59.3.45.32.34.34.25.34.16.33.1.3.04.26.02.2-.01.13V8.5l-.05.63-.13.55-.21.46-.26.38-.3.31-.33.25-.35.19-.35.14-.33.1-.3.07-.26.04-.21.02H8.77l-.69.05-.59.14-.5.22-.41.27-.33.32-.27.35-.2.36-.15.37-.1.35-.07.32-.04.27-.02.21v3.06H3.17l-.21-.03-.28-.07-.32-.12-.35-.18-.36-.26-.36-.36-.35-.46-.32-.59-.28-.73-.21-.88-.14-1.05-.05-1.23.06-1.22.16-1.04.24-.87.32-.71.36-.57.4-.44.42-.33.42-.24.4-.16.36-.1.32-.05.24-.01h.16l.06.01h8.16v-.83H6.18l-.01-2.75-.02-.37.05-.35.12-.33.18-.32.25-.3.32-.27.39-.25.46-.22.54-.18.62-.15.69-.11.77-.07.84-.04.9-.01H14.25zM9.63 6.93a.85.85 0 0 0-.85.85.86.86 0 0 0 .85.86c.47 0 .85-.38.85-.86s-.38-.85-.85-.85zm4.32 7.42l.01.01-.01 2.75.02.37-.05.35-.12.33-.18.32-.25.3-.32.28-.39.24-.46.22-.54.19-.62.15-.69.1-.77.07-.84.04-.9.01H5.63l-.91-.02-.74-.08-.6-.14-.47-.19-.37-.23-.28-.26-.21-.29-.15-.3-.1-.31-.06-.3-.03-.27-.01-.22.01-.13v-7.34l.05-.63.13-.55.21-.46.26-.38.3-.32.33-.24.35-.2.35-.14.33-.1.3-.06.26-.04.21-.02.13-.01h5.84l.69-.05.59-.14.5-.22.41-.27.33-.32.27-.35.2-.36.15-.36.1-.35.07-.32.04-.28.02-.21V6.07h3.09l.22.03.28.07.32.12.35.18.36.26.36.36.36.47.31.59.27.73.22.88.13 1.05.05 1.23-.06 1.22-.16 1.04-.24.87-.32.71-.37.57-.4.45-.42.33-.42.24-.4.16-.36.09-.32.05-.24.02-.16-.01h-8.16v.83h5.18zm-4.17.38a.85.85 0 0 0-.85.86c0 .47.38.85.85.85s.85-.38.85-.85a.86.86 0 0 0-.85-.86z"/></svg>