<svg xmlns="http://www.w3.org/2000/svg" viewBox="0 0 24 24" fill="#61DAFB"><path d="M14.23 12.004a2.236 2.236 0 0 1-2.235 2.236 2.236 2.236 0 0 1-2.236-2.236 2.236 2.236 0 0 1 2.235-2.236 2.236 2.236 0 0 1 2.236 2.236zm2.648-10.69c-1.346 0-3.107.96-4.888 2.622-1.78-1.653-3.542-2.602-4.887-2.602-.31 0-.592.068-.846.198-1.573.85-1.39 4.002.586 8.264C4.886 13.87 3.213 16.945 4.78 17.79c.26.14.56.209.882.209 1.34 0 3.098-.956 4.876-2.613 1.784 1.665 3.552 2.613 4.893 2.613.326 0 .628-.07.89-.213 1.572-.852 1.388-4.008-.593-8.276 1.984-4.27 2.17-7.434.598-8.29a1.485 1.485 0 0 0-.694-.16zM18.6 3.099c.282.153.394.738.248 1.62-.146.88-.503 1.96-1.053 3.126a23.706 23.706 0 0 0-2.021-2.37 23.796 23.796 0 0 0-2.585-1.188c1.827-.82 3.44-1.272 4.383-1.272.2 0 .375.03.525.084h.003zm-8.137 4.83a22.478 22.478 0 0 1 1.542-1.255 22.254 22.254 0 0 1 1.542 1.254c.518.467 1.004.96 1.455 1.473a22.56 22.56 0 0 1-1.455 1.473 22.1 22.1 0 0 1-1.542 1.254 22.478 22.478 0 0 1-1.542-1.254 22.36 22.36 0 0 1-1.455-1.473 22.56 22.56 0 0 1 1.455-1.473zM5.756 9.69c.55-1.166.907-2.246 1.053-3.127.146-.88.034-1.466-.248-1.62a.495.495 0 0 0-.255-.047c-.92 0-2.513.443-4.312 1.24A23.796 23.796 0 0 0 4.58 7.323 23.706 23.706 0 0 0 6.6 9.694L5.756 9.69zm.54 2.514A23.706 23.706 0 0 0 4.276 14.6a23.796 23.796 0 0 0 2.585 1.188c-1.827.82-3.44 1.272-4.383 1.272a.864.864 0 0 1-.525-.084c-.283-.154-.395-.74-.248-1.621.146-.88.502-1.96 1.053-3.127l.393-.142 3.145 0zM12 17.285a22.478 22.478 0 0 1-1.542 1.255 22.254 22.254 0 0 1-1.542-1.254 22.36 22.36 0 0 1-1.455-1.473 22.56 22.56 0 0 1 1.455-1.473 22.1 22.1 0 0 1 1.542-1.254 22.478 22.478 0 0 1 1.542 1.254c.518.467 1.004.96 1.455 1.473a22.56 22.56 0 0 1-1.455 1.473zm6.248-2.892c.55 1.166.907 2.246 1.053 3.127.146.88.034 1.466-.249 1.62a.495.495 0 0 1-.254.048c-.921 0-2.514-.443-4.313-1.24a23.796 23.796 0 0 0 2.586-1.189 23.706 23.706 0 0 0 2.021-2.37l-.003.002-.393.142-3.145 0z"/></svg>